HIERARCHY
ROOT Hips
{
	OFFSET	0.00	0.00	0.00
	CHANNELS 6 Xposition Yposition Zposition Zrotation Xrotation Yrotation
	JOINT LeftUpLeg
	{
		OFFSET	 0.126116	-0.065224	 0.014019
		CHANNELS 3 Zrotation Xrotation Yrotation
		JOINT LeftLeg
		{
			OFFSET	 0.000000	 0.569914	 0.000000
			CHANNELS 3 Zrotation Xrotation Yrotation
			JOINT LeftFoot
			{
				OFFSET	 0.000000	 0.544423	 0.000000
				CHANNELS 3 Zrotation Xrotation Yrotation
				JOINT LeftToeBase
				{
					OFFSET	 0.000000	 0.207117	 0.000000
					CHANNELS 3 Zrotation Xrotation Yrotation
					End Site
					{
						OFFSET	 0.000000	 0.207117	 0.000000
					}
				}
			}
		}
	}
	JOINT RightUpLeg
	{
		OFFSET	-0.124023	-0.065224	 0.008373
		CHANNELS 3 Zrotation Xrotation Yrotation
		JOINT RightLeg
		{
			OFFSET	 0.000000	 0.570047	 0.000000
			CHANNELS 3 Zrotation Xrotation Yrotation
			JOINT RightFoot
			{
				OFFSET	 0.000000	 0.544354	 0.000000
				CHANNELS 3 Zrotation Xrotation Yrotation
				JOINT RightToeBase
				{
					OFFSET	 0.000000	 0.207540	 0.000000
					CHANNELS 3 Zrotation Xrotation Yrotation
					End Site
					{
						OFFSET	 0.000000	 0.207540	 0.000000
					}
				}
			}
		}
	}
	JOINT Spine
	{
		OFFSET	 0.000184	 0.117403	 0.007763
		CHANNELS 3 Zrotation Xrotation Yrotation
		JOINT Spine1
		{
			OFFSET	 0.000000	 0.137269	 0.000000
			CHANNELS 3 Zrotation Xrotation Yrotation
			JOINT Spine2
			{
				OFFSET	 0.000000	 0.156879	 0.000000
				CHANNELS 3 Zrotation Xrotation Yrotation
				JOINT LeftShoulder
				{
					OFFSET	 0.080501	 0.160143	 0.002496
					CHANNELS 3 Zrotation Xrotation Yrotation
					JOINT LeftArm
					{
						OFFSET	 0.000000	 0.164363	 0.000000
						CHANNELS 3 Zrotation Xrotation Yrotation
						JOINT LeftForeArm
						{
							OFFSET	 0.000000	 0.364576	 0.000000
							CHANNELS 3 Zrotation Xrotation Yrotation
							JOINT LeftHand
							{
								OFFSET	 0.000000	 0.360812	 0.000000
								CHANNELS 3 Zrotation Xrotation Yrotation
								JOINT LeftHandIndex1
								{
									OFFSET	 0.000000	 0.086006	 0.000000
									CHANNELS 3 Zrotation Xrotation Yrotation
									JOINT LeftHandIndex2
									{
										OFFSET	 0.000000	 0.047237	 0.000000
										CHANNELS 3 Zrotation Xrotation Yrotation
										JOINT LeftHandIndex3
										{
											OFFSET	-0.004284	 0.038165	 0.000551
											CHANNELS 3 Zrotation Xrotation Yrotation
											End Site
											{
												OFFSET	-0.004284	 0.038165	 0.000551
											}
										}
									}
								}
							}
						}
					}
				}
				JOINT Neck
				{
					OFFSET	 0.000000	 0.176489	 0.000000
					CHANNELS 3 Zrotation Xrotation Yrotation
					JOINT Head
					{
						OFFSET	 0.000000	 0.077941	 0.001747
						CHANNELS 3 Zrotation Xrotation Yrotation
						End Site
						{
							OFFSET	 0.000000	 0.077941	 0.001747
						}
					}
				}
				JOINT RightShoulder
				{
					OFFSET	-0.080363	 0.159706	-0.000306
					CHANNELS 3 Zrotation Xrotation Yrotation
					JOINT RightArm
					{
						OFFSET	 0.000000	 0.164196	 0.000000
						CHANNELS 3 Zrotation Xrotation Yrotation
						JOINT RightForeArm
						{
							OFFSET	 0.000000	 0.365611	 0.000000
							CHANNELS 3 Zrotation Xrotation Yrotation
							JOINT RightHand
							{
								OFFSET	 0.000000	 0.360648	 0.000000
								CHANNELS 3 Zrotation Xrotation Yrotation
								JOINT RightHandIndex1
								{
									OFFSET	 0.000000	 0.069977	 0.000000
									CHANNELS 3 Zrotation Xrotation Yrotation
									JOINT RightHandIndex2
									{
										OFFSET	 0.000000	 0.052305	 0.000000
										CHANNELS 3 Zrotation Xrotation Yrotation
										JOINT RightHandIndex3
										{
											OFFSET	 0.009002	 0.042196	 0.000782
											CHANNELS 3 Zrotation Xrotation Yrotation
											End Site
											{
												OFFSET	 0.009002	 0.042196	 0.000782
											}
										}
									}
								}
							}
						}
					}
				}
			}
		}
	}
}
MOTION
Frames:    7
Frame Time: 0.03333334
 0.001406	 1.271420	 0.063388	 0.015580	-0.011744	 179.999900	 177.137700	 1.229628	 19.139220	 2.657704	-12.346040	 0.030055	-1.966112	 71.731540	 4.063168	 1.292262	 28.425850	-2.713146	-177.067300	 1.597625	-19.150530	-2.641734	-12.635900	-0.026292	 2.113975	 71.664530	-4.140322	-1.288183	 28.361890	 2.710176	-0.089620	 2.704450	-0.000518	 0.008073	 3.690150	-0.000993	-0.003814	-4.717754	-0.004162	-101.478000	 1.740672	 90.353390	-1.905150	 64.015150	 4.741426	 6.567246	 13.459070	 0.679364	 9.791815	-30.168360	 0.749270	-6.580301	 5.266122	 0.000000	 0.000000	 0.000000	 0.000000	 0.000000	 0.000000	 0.000000	 0.089846	-3.783161	 0.005928	 0.000015	 1.263154	-0.001370	 101.796200	-0.213312	-89.955450	-1.349604	 63.947610	-7.137134	-8.953838	 13.429840	 2.330136	-13.123770	-31.108100	 1.002758	 15.208500	 5.323790	 0.000000	 0.000000	 0.000000	 0.000000	 0.000000	 0.000000	 0.000000
 0.001405	 1.272126	 0.063341	 0.015576	-0.011744	 179.999900	 177.137900	 1.229822	 19.136670	 2.657724	-12.346160	 0.030065	-1.945859	 71.608920	 4.045000	 1.292262	 28.425850	-2.713146	-177.067600	 1.597766	-19.148020	-2.641732	-12.635910	-0.026290	 2.093166	 71.541850	-4.121637	-1.288183	 28.361890	 2.710176	-0.089620	 2.704451	-0.000518	 0.008101	 3.690140	-0.000993	-0.003827	-4.717747	-0.004158	-101.478000	 1.740672	 90.353390	-2.238503	 63.591490	 5.033564	 6.956299	 14.221190	 0.586245	 9.644503	-31.506670	 0.831775	-6.580301	 5.266122	 0.000000	 0.000000	 0.000000	 0.000000	 0.000000	 0.000000	 0.000000	 0.089846	-3.783161	 0.005928	 0.000015	 1.263154	-0.001370	 101.796200	-0.213319	-89.955440	-0.210280	 62.454920	-8.136177	-10.902370	 16.181510	 2.771144	-13.049550	-33.437170	-0.020553	 15.208500	 5.323790	 0.000000	 0.000000	 0.000000	 0.000000	 0.000000	 0.000000	 0.000000
 0.001404	 1.272824	 0.063294	 0.015593	-0.011744	 179.999900	 177.138200	 1.229921	 19.134060	 2.657702	-12.346050	 0.030052	-1.926405	 71.487790	 4.027649	 1.292262	 28.425850	-2.713146	-177.067800	 1.597823	-19.145520	-2.641698	-12.635750	-0.026287	 2.072849	 71.420720	-4.103458	-1.288183	 28.361890	 2.710176	-0.089620	 2.704450	-0.000518	 0.008086	 3.689974	-0.000993	-0.003823	-4.717647	-0.004157	-101.478000	 1.740672	 90.353390	-2.550152	 63.173180	 5.301836	 7.329508	 14.947020	 0.492320	 9.516210	-33.324820	 0.917824	-6.580301	 5.266122	 0.000000	 0.000000	 0.000000	 0.000000	 0.000000	 0.000000	 0.000000	 0.089846	-3.783161	 0.005928	 0.000015	 1.263154	-0.001370	 101.796200	-0.213318	-89.955450	 0.881576	 60.629750	-9.057673	-13.356520	 19.515450	 3.437243	-13.222550	-36.547000	-1.540719	 15.208500	 5.323790	 0.000000	 0.000000	 0.000000	 0.000000	 0.000000	 0.000000	 0.000000
 0.001403	 1.273531	 0.063248	 0.015580	-0.011744	 179.999900	 177.138500	 1.230012	 19.131480	 2.657691	-12.346000	 0.030053	-1.906622	 71.364930	 4.009997	 1.292262	 28.425850	-2.713146	-177.068100	 1.597919	-19.142830	-2.641655	-12.635580	-0.026279	 2.052970	 71.297790	-4.085781	-1.288183	 28.361890	 2.710176	-0.089620	 2.704450	-0.000518	 0.008106	 3.690150	-0.000994	-0.003837	-4.717793	-0.004218	-101.478000	 1.740673	 90.353390	-2.851071	 62.743790	 5.556126	 7.699668	 15.661500	 0.394624	 9.405226	-35.661170	 1.011952	-6.580301	 5.266122	 0.000000	 0.000000	 0.000000	 0.000000	 0.000000	 0.000000	 0.000000	 0.089846	-3.783161	 0.005928	 0.000015	 1.263154	-0.001370	 101.796200	-0.213309	-89.955450	 1.821090	 58.497880	-9.793647	-16.357860	 23.368790	 4.417408	-13.785200	-40.424290	-3.694978	 15.208500	 5.323790	 0.000000	 0.000000	 0.000000	 0.000000	 0.000000	 0.000000	 0.000000
 0.001402	 1.274228	 0.063202	 0.015632	-0.011749	 179.999900	 177.138800	 1.230160	 19.128780	 2.657670	-12.345920	 0.030041	-1.887956	 71.243870	 3.993464	 1.292262	 28.425850	-2.713146	-177.068300	 1.598059	-19.140170	-2.641657	-12.635540	-0.026282	 2.033658	 71.176740	-4.068622	-1.288183	 28.361890	 2.710176	-0.089620	 2.704450	-0.000518	 0.008168	 3.690145	-0.000995	-0.003860	-4.717752	-0.004168	-101.478000	 1.740680	 90.353390	-3.136642	 62.309900	 5.791592	 8.058792	 16.349220	 0.295569	 9.318147	-38.416290	 1.115923	-6.580301	 5.266122	 0.000000	 0.000000	 0.000000	 0.000000	 0.000000	 0.000000	 0.000000	 0.089846	-3.783161	 0.005928	 0.000015	 1.263154	-0.001370	 101.796200	-0.213316	-89.955450	 2.507997	 56.163070	-10.243150	-19.866680	 27.536420	 5.781308	-14.901990	-44.859420	-6.594384	 15.208500	 5.323790	 0.000000	 0.000000	 0.000000	 0.000000	 0.000000	 0.000000	 0.000000
 0.001395	 1.278863	 0.062895	 0.015632	-0.011749	 179.999900	 177.140500	 1.231314	 19.109750	 2.657719	-12.346130	 0.030058	-1.771533	 70.439200	 3.891675	 1.292262	 28.425850	-2.713146	-177.070000	 1.599307	-19.121080	-2.641738	-12.635950	-0.026295	 1.914605	 70.372190	-3.964478	-1.288183	 28.361890	 2.710176	-0.089620	 2.704450	-0.000518	 0.008168	 3.690145	-0.000995	-0.003863	-4.717789	-0.004218	-101.478000	 1.740680	 90.353390	-4.858666	 58.768170	 7.064805	 10.402250	 20.697830	-0.449513	 9.229536	-58.159030	 2.091752	-6.580301	 5.266122	 0.000000	 0.000000	 0.000000	 0.000000	 0.000000	 0.000000	 0.000000	 0.089846	-3.783161	 0.005928	 0.000015	 1.263154	-0.001370	 101.796200	-0.213323	-89.955450	-2.598562	 37.357980	-0.809420	-68.298490	 54.949360	 38.051790	-58.116580	-69.506290	-70.847620	 15.208500	 5.323790	 0.000000	 0.000000	 0.000000	 0.000000	 0.000000	 0.000000	 0.000000
 0.001394	 1.279478	 0.062854	 0.015593	-0.011744	 179.999900	 177.140700	 1.231403	 19.107120	 2.657693	-12.346010	 0.030051	-1.756958	 70.332280	 3.879114	 1.292262	 28.425850	-2.713146	-177.070300	 1.599443	-19.118420	-2.641737	-12.635910	-0.026294	 1.899755	 70.265290	-3.951675	-1.288183	 28.361890	 2.710176	-0.089620	 2.704450	-0.000518	 0.008086	 3.689974	-0.000993	-0.003823	-4.717647	-0.004157	-101.478000	 1.740672	 90.353390	-5.064676	 58.179440	 7.192713	 10.706030	 21.242820	-0.558241	 9.121595	-58.339480	 2.120000	-6.580301	 5.266122	 0.000000	 0.000000	 0.000000	 0.000000	 0.000000	 0.000000	 0.000000	 0.089846	-3.783161	 0.005928	 0.000015	 1.263154	-0.001370	 101.796200	-0.213318	-89.955450	-5.267413	 34.911820	 3.234617	-78.311420	 56.352060	 46.018350	-61.078990	-69.370920	-78.889680	 15.208500	 5.323790	 0.000000	 0.000000	 0.000000	 0.000000	 0.000000	 0.000000	 0.000000
